<svg width="53" height="49" viewBox="0 0 53 49" fill="none" xmlns="http://www.w3.org/2000/svg">
<path d="M19.337 30.9085L32.7486 6.68208C32.9329 6.34844 33.1173 6.01919 33.2841 5.67457C33.4356 5.36288 33.5629 5.04899 33.6463 4.70877C33.8219 3.99319 33.7736 3.24689 33.5014 2.56424C33.2356 1.89261 32.7577 1.32614 32.1405 0.9509C31.534 0.58303 30.8199 0.433554 30.1167 0.527262C29.4143 0.621648 28.7712 0.953095 28.2641 1.47112C28.0227 1.71257 27.8251 1.98695 27.6429 2.27888C27.441 2.59936 27.2588 2.933 27.0744 3.26664L26.2272 4.79657L25.3777 3.26445C25.1933 2.933 25.0111 2.59936 24.8092 2.27888C24.6318 1.98741 24.4235 1.71586 24.188 1.46892C23.6933 0.956454 23.0409 0.624857 22.3354 0.527262C21.633 0.434245 20.9198 0.583691 20.3138 0.9509C19.6967 1.32626 19.2189 1.89269 18.9529 2.56424C18.6796 3.2459 18.6289 3.99654 18.808 4.70877C18.8914 5.04899 19.0187 5.36288 19.168 5.67457C19.3348 6.01919 19.5192 6.34844 19.7036 6.68208L22.443 11.6296L11.7708 30.9063H4.4548C4.08824 30.9063 3.71947 30.9063 3.35291 30.9282C3.01926 30.948 2.6944 30.9897 2.36954 31.0841C1.68908 31.2816 1.09204 31.6987 0.661817 32.2869C0.232032 32.8791 0.00039472 33.5919 5.04012e-07 34.3236C-0.000393712 35.0552 0.230476 35.7683 0.659622 36.3609C1.09204 36.9491 1.68689 37.364 2.36954 37.5638C2.6944 37.6581 3.01926 37.6998 3.35291 37.7196C3.71947 37.7416 4.08824 37.7416 4.457 37.7416H33.2051C33.2929 37.5497 33.3663 37.3516 33.4246 37.1489C34.3355 34.0408 32.0725 30.9063 28.9578 30.9063L19.337 30.9085ZM6.8342 38.8588L5.09575 42.1513C4.91576 42.4938 4.73357 42.8318 4.57114 43.1852C4.42069 43.5031 4.30302 43.8356 4.21994 44.1773C4.04381 44.9086 4.09277 45.676 4.36042 46.3789C4.62601 47.077 5.09355 47.6586 5.69279 48.0362C6.28984 48.4137 6.98566 48.5674 7.6705 48.4686C8.35974 48.372 8.98751 48.034 9.48358 47.5028C9.72065 47.2504 9.91381 46.9716 10.0938 46.6731C10.2913 46.3438 10.4691 46.0014 10.6491 45.659L13.1712 40.8826C12.9737 40.5534 11.0925 37.6559 6.8342 38.8588ZM52.0208 32.2606C51.5973 31.6875 50.9961 31.2708 50.3109 31.0753C49.9899 30.9868 49.6601 30.9345 49.3275 30.9194C48.9587 30.8975 48.5922 30.8975 48.2234 30.8975H40.9338L31.2976 13.7434C30.0334 15.0708 29.2087 16.7554 28.9358 18.5681C28.5829 20.8354 29.0052 23.1555 30.1343 25.1531L41.7108 45.7709C41.8952 46.1002 42.0774 46.4294 42.2793 46.7455C42.4637 47.0309 42.6612 47.3008 42.9005 47.5445C43.4075 48.0537 44.0507 48.3786 44.7553 48.473C45.4577 48.5652 46.1667 48.4203 46.7791 48.0559C47.395 47.6875 47.8736 47.1279 48.1422 46.4623C48.4166 45.7885 48.4627 45.0531 48.2871 44.3464C48.2007 44.0168 48.0793 43.6974 47.9249 43.3937C47.7603 43.0535 47.5737 42.7286 47.3893 42.3994L44.7202 37.645H48.2234C48.5922 37.645 48.9587 37.645 49.3275 37.6252C49.6611 37.6055 49.986 37.5638 50.3109 37.4716C50.9972 37.276 51.5993 36.8583 52.023 36.2841C52.4521 35.7016 52.6829 34.9969 52.6815 34.2734C52.6829 33.55 52.4521 32.8452 52.023 32.2628L52.0208 32.2606Z" fill="#87F0E5"/>
</svg>
