<svg width="128" height="128" viewBox="0 0 128 128" fill="none" xmlns="http://www.w3.org/2000/svg">
<path fill-rule="evenodd" clip-rule="evenodd" d="M0 -0.00619507H110.224V17.7719H103.113V7.10503H7.11123V88.8842H83.1551V95.9954H0V-0.00619507ZM106.668 46.2168C109.497 46.2168 112.211 45.093 114.211 43.0925C116.211 41.0921 117.335 38.379 117.335 35.5499C117.335 32.7209 116.211 30.0078 114.211 28.0073C112.211 26.0069 109.497 24.8831 106.668 24.8831C103.839 24.8831 101.126 26.0069 99.1258 28.0073C97.1254 30.0078 96.0016 32.7209 96.0016 35.5499C96.0016 38.379 97.1254 41.0921 99.1258 43.0925C101.126 45.093 103.839 46.2168 106.668 46.2168ZM113.89 53.3636C118.509 53.3636 122.164 55.4401 124.557 58.6472C126.793 61.6517 127.739 65.3673 127.952 68.7985C128.161 72.3182 127.682 75.8448 126.541 79.1809C125.474 82.2743 123.671 85.4743 120.891 87.6681V122.662C120.893 124.003 120.392 125.294 119.485 126.281C118.578 127.268 117.333 127.877 115.998 127.988C114.663 128.099 113.334 127.703 112.278 126.879C111.221 126.054 110.513 124.863 110.295 123.541L105.708 95.9954H104.649L99.4648 123.644C99.2186 124.949 98.4945 126.115 97.4341 126.914C96.3736 127.713 95.0532 128.088 93.7309 127.966C92.4087 127.843 91.1798 127.231 90.2846 126.251C89.3893 125.27 88.8922 123.99 88.8904 122.662V71.9345C88.1793 73.0177 87.4776 74.1069 86.7854 75.2022L86.5081 75.6395L86.437 75.7533L86.4192 75.7853C85.94 76.5547 85.2726 77.1893 84.48 77.6291C83.6874 78.069 82.7958 78.2996 81.8894 78.2991H64.1113C62.6968 78.2991 61.3402 77.7372 60.34 76.737C59.3398 75.7368 58.7779 74.3802 58.7779 72.9657C58.7779 71.5512 59.3398 70.1946 60.34 69.1944C61.3402 68.1942 62.6968 67.6323 64.1113 67.6323H78.9631C79.8271 66.2953 80.9649 64.5602 82.1596 62.818C83.404 61.001 84.7765 59.0774 85.9996 57.5699C86.5934 56.8339 87.2583 56.0658 87.9268 55.4365C88.2539 55.1272 88.709 54.7254 89.2637 54.3698C90.2426 53.7273 91.3853 53.3793 92.5562 53.3671L113.89 53.3636Z" fill="#513FF2"/>
</svg>
